<svg width="177" height="55" viewBox="0 0 177 55" fill="none" xmlns="http://www.w3.org/2000/svg">
<path d="M32.912 11.88V23H31.088V15.384L27.696 23H26.432L23.024 15.384V23H21.2V11.88H23.168L27.072 20.6L30.96 11.88H32.912ZM37.1334 11.88V23H35.3094V11.88H37.1334ZM51.2401 11.88V23H49.4161V15.384L46.0241 23H44.7601L41.3521 15.384V23H39.5281V11.88H41.4961L45.4001 20.6L49.2881 11.88H51.2401ZM57.3015 23.112C56.5548 23.112 55.8828 22.984 55.2855 22.728C54.6882 22.4613 54.2188 22.088 53.8775 21.608C53.5362 21.128 53.3655 20.568 53.3655 19.928H55.3175C55.3602 20.408 55.5468 20.8027 55.8775 21.112C56.2188 21.4213 56.6935 21.576 57.3015 21.576C57.9308 21.576 58.4215 21.4267 58.7735 21.128C59.1255 20.8187 59.3015 20.424 59.3015 19.944C59.3015 19.5707 59.1895 19.2667 58.9655 19.032C58.7522 18.7973 58.4802 18.616 58.1495 18.488C57.8295 18.36 57.3815 18.2213 56.8055 18.072C56.0802 17.88 55.4882 17.688 55.0295 17.496C54.5815 17.2933 54.1975 16.984 53.8775 16.568C53.5575 16.152 53.3975 15.5973 53.3975 14.904C53.3975 14.264 53.5575 13.704 53.8775 13.224C54.1975 12.744 54.6455 12.376 55.2215 12.12C55.7975 11.864 56.4642 11.736 57.2215 11.736C58.2988 11.736 59.1788 12.008 59.8615 12.552C60.5548 13.0853 60.9388 13.8213 61.0135 14.76H58.9975C58.9655 14.3547 58.7735 14.008 58.4215 13.72C58.0695 13.432 57.6055 13.288 57.0295 13.288C56.5068 13.288 56.0802 13.4213 55.7495 13.688C55.4188 13.9547 55.2535 14.3387 55.2535 14.84C55.2535 15.1813 55.3548 15.464 55.5575 15.688C55.7708 15.9013 56.0375 16.072 56.3575 16.2C56.6775 16.328 57.1148 16.4667 57.6695 16.616C58.4055 16.8187 59.0028 17.0213 59.4615 17.224C59.9308 17.4267 60.3255 17.7413 60.6455 18.168C60.9762 18.584 61.1415 19.144 61.1415 19.848C61.1415 20.4133 60.9868 20.9467 60.6775 21.448C60.3788 21.9493 59.9362 22.3547 59.3495 22.664C58.7735 22.9627 58.0908 23.112 57.3015 23.112Z" fill="#A70C0C"/>
<path d="M76.586 23H74.762L69.274 14.696V23H67.45V11.864H69.274L74.762 20.152V11.864H76.586V23ZM82.8053 23.144C81.9733 23.144 81.2213 22.9573 80.5493 22.584C79.8773 22.2 79.3493 21.6667 78.9653 20.984C78.5813 20.2907 78.3893 19.4907 78.3893 18.584C78.3893 17.688 78.5866 16.8933 78.9813 16.2C79.3759 15.5067 79.9146 14.9733 80.5973 14.6C81.2799 14.2267 82.0426 14.04 82.8853 14.04C83.7279 14.04 84.4906 14.2267 85.1733 14.6C85.8559 14.9733 86.3946 15.5067 86.7893 16.2C87.1839 16.8933 87.3813 17.688 87.3813 18.584C87.3813 19.48 87.1786 20.2747 86.7733 20.968C86.3679 21.6613 85.8133 22.2 85.1093 22.584C84.4159 22.9573 83.6479 23.144 82.8053 23.144ZM82.8053 21.56C83.2746 21.56 83.7119 21.448 84.1173 21.224C84.5333 21 84.8693 20.664 85.1253 20.216C85.3813 19.768 85.5093 19.224 85.5093 18.584C85.5093 17.944 85.3866 17.4053 85.1413 16.968C84.8959 16.52 84.5706 16.184 84.1653 15.96C83.7599 15.736 83.3226 15.624 82.8533 15.624C82.3839 15.624 81.9466 15.736 81.5413 15.96C81.1466 16.184 80.8319 16.52 80.5973 16.968C80.3626 17.4053 80.2453 17.944 80.2453 18.584C80.2453 19.5333 80.4853 20.2693 80.9653 20.792C81.4559 21.304 82.0693 21.56 82.8053 21.56ZM91.0084 15.464C91.275 15.016 91.627 14.6693 92.0644 14.424C92.5124 14.168 93.0404 14.04 93.6484 14.04V15.928H93.1844C92.4697 15.928 91.9257 16.1093 91.5524 16.472C91.1897 16.8347 91.0084 17.464 91.0084 18.36V23H89.1844V14.184H91.0084V15.464ZM97.453 15.672V20.552C97.453 20.8827 97.5277 21.1227 97.677 21.272C97.837 21.4107 98.1037 21.48 98.477 21.48H99.597V23H98.157C97.3357 23 96.7063 22.808 96.269 22.424C95.8317 22.04 95.613 21.416 95.613 20.552V15.672H94.573V14.184H95.613V11.992H97.453V14.184H99.597V15.672H97.453ZM105.838 14.04C106.51 14.04 107.107 14.184 107.63 14.472C108.163 14.76 108.579 15.1867 108.878 15.752C109.187 16.3173 109.342 17 109.342 17.8V23H107.534V18.072C107.534 17.2827 107.337 16.68 106.942 16.264C106.547 15.8373 106.009 15.624 105.326 15.624C104.643 15.624 104.099 15.8373 103.694 16.264C103.299 16.68 103.102 17.2827 103.102 18.072V23H101.278V11.16H103.102V15.208C103.411 14.8347 103.801 14.5467 104.27 14.344C104.75 14.1413 105.273 14.04 105.838 14.04ZM111.061 18.552C111.061 17.6667 111.242 16.8827 111.605 16.2C111.978 15.5173 112.479 14.9893 113.109 14.616C113.749 14.232 114.458 14.04 115.237 14.04C115.813 14.04 116.378 14.168 116.933 14.424C117.498 14.6693 117.946 15 118.277 15.416V11.16H120.117V23H118.277V21.672C117.978 22.0987 117.562 22.4507 117.029 22.728C116.506 23.0053 115.903 23.144 115.221 23.144C114.453 23.144 113.749 22.952 113.109 22.568C112.479 22.1733 111.978 21.6293 111.605 20.936C111.242 20.232 111.061 19.4373 111.061 18.552ZM118.277 18.584C118.277 17.976 118.149 17.448 117.893 17C117.647 16.552 117.322 16.2107 116.917 15.976C116.511 15.7413 116.074 15.624 115.605 15.624C115.135 15.624 114.698 15.7413 114.293 15.976C113.887 16.2 113.557 16.536 113.301 16.984C113.055 17.4213 112.933 17.944 112.933 18.552C112.933 19.16 113.055 19.6933 113.301 20.152C113.557 20.6107 113.887 20.9627 114.293 21.208C114.709 21.4427 115.146 21.56 115.605 21.56C116.074 21.56 116.511 21.4427 116.917 21.208C117.322 20.9733 117.647 20.632 117.893 20.184C118.149 19.7253 118.277 19.192 118.277 18.584ZM121.905 18.552C121.905 17.6667 122.086 16.8827 122.449 16.2C122.822 15.5173 123.323 14.9893 123.953 14.616C124.593 14.232 125.297 14.04 126.065 14.04C126.758 14.04 127.361 14.1787 127.873 14.456C128.395 14.7227 128.811 15.0587 129.121 15.464V14.184H130.961V23H129.121V21.688C128.811 22.104 128.39 22.4507 127.857 22.728C127.323 23.0053 126.715 23.144 126.033 23.144C125.275 23.144 124.582 22.952 123.953 22.568C123.323 22.1733 122.822 21.6293 122.449 20.936C122.086 20.232 121.905 19.4373 121.905 18.552ZM129.121 18.584C129.121 17.976 128.993 17.448 128.737 17C128.491 16.552 128.166 16.2107 127.761 15.976C127.355 15.7413 126.918 15.624 126.449 15.624C125.979 15.624 125.542 15.7413 125.137 15.976C124.731 16.2 124.401 16.536 124.145 16.984C123.899 17.4213 123.777 17.944 123.777 18.552C123.777 19.16 123.899 19.6933 124.145 20.152C124.401 20.6107 124.731 20.9627 125.137 21.208C125.553 21.4427 125.99 21.56 126.449 21.56C126.918 21.56 127.355 21.4427 127.761 21.208C128.166 20.9733 128.491 20.632 128.737 20.184C128.993 19.7253 129.121 19.192 129.121 18.584ZM135.18 11.16V23H133.356V11.16H135.18ZM145.655 18.376C145.655 18.7067 145.634 19.0053 145.591 19.272H138.855C138.908 19.976 139.17 20.5413 139.639 20.968C140.108 21.3947 140.684 21.608 141.367 21.608C142.348 21.608 143.042 21.1973 143.447 20.376H145.415C145.148 21.1867 144.663 21.8533 143.959 22.376C143.266 22.888 142.402 23.144 141.367 23.144C140.524 23.144 139.767 22.9573 139.095 22.584C138.434 22.2 137.911 21.6667 137.527 20.984C137.154 20.2907 136.967 19.4907 136.967 18.584C136.967 17.6773 137.148 16.8827 137.511 16.2C137.884 15.5067 138.402 14.9733 139.063 14.6C139.735 14.2267 140.503 14.04 141.367 14.04C142.199 14.04 142.94 14.2213 143.591 14.584C144.242 14.9467 144.748 15.4587 145.111 16.12C145.474 16.7707 145.655 17.5227 145.655 18.376ZM143.751 17.8C143.74 17.128 143.5 16.5893 143.031 16.184C142.562 15.7787 141.98 15.576 141.287 15.576C140.658 15.576 140.119 15.7787 139.671 16.184C139.223 16.5787 138.956 17.1173 138.871 17.8H143.751Z" fill="white"/>
<path d="M27.576 33.6C27.632 34.24 27.648 34.584 27.648 35.248V38.352C27.648 39.016 27.624 39.36 27.56 40H31.408L31.672 39.464C30.68 39.8 30.176 39.848 29.352 39.848H28.744V35.248C28.744 34.584 28.76 34.24 28.816 33.6H27.576ZM35.1018 36.176C35.1978 36.96 35.1978 37.264 35.1978 37.792V38.432V38.936C34.9258 39.464 34.5018 39.904 33.9498 39.904C33.5018 39.904 33.3018 39.568 33.3018 38.928V36.176H32.2458C32.3418 36.96 32.3418 37.264 32.3418 37.792V38.608C32.3418 39.72 32.7978 40.16 33.5978 40.16C34.3898 40.16 34.8938 39.672 35.1898 39.152C35.1818 39.384 35.1578 39.64 35.1258 40H36.1498V36.176H35.1018ZM40.1242 39.552L39.0762 37.936L40.0202 36.592C40.1402 36.432 40.1882 36.352 40.3402 36.176H40.1082C40.0202 36.352 39.9562 36.424 39.8442 36.592L38.9882 37.792L38.2442 36.648C38.1322 36.464 38.0682 36.352 37.9962 36.176H36.7402C36.9082 36.352 36.9722 36.464 37.1002 36.648L38.1242 38.248L37.2202 39.584C37.1162 39.744 37.0602 39.824 36.9002 40H37.1402C37.2362 39.824 37.2842 39.752 37.3962 39.584L38.2202 38.392L38.9642 39.552C39.0682 39.712 39.1242 39.824 39.2042 40H40.4682C40.3002 39.824 40.2282 39.712 40.1242 39.552ZM43.7503 36.176C43.8463 36.96 43.8463 37.264 43.8463 37.792V38.432V38.936C43.5743 39.464 43.1503 39.904 42.5983 39.904C42.1503 39.904 41.9503 39.568 41.9503 38.928V36.176H40.8943C40.9903 36.96 40.9903 37.264 40.9903 37.792V38.608C40.9903 39.72 41.4463 40.16 42.2463 40.16C43.0383 40.16 43.5423 39.672 43.8383 39.152C43.8303 39.384 43.8063 39.64 43.7743 40H44.7983V36.176H43.7503ZM48.9058 36.176C47.8818 35.992 47.3858 36.56 46.7778 37.264C46.7858 36.936 46.8018 36.608 46.8498 36.176H45.7458C45.8258 36.824 45.8258 37.224 45.8258 37.752V38.432C45.8258 38.96 45.8258 39.352 45.7458 40H46.8498C46.7778 39.352 46.7778 38.96 46.7778 38.432V37.752V37.488C47.5458 36.664 47.8338 36.624 48.2498 36.76C48.7378 36.928 49.0018 36.624 48.9058 36.176ZM53.1496 36.176C53.1016 36.408 53.0856 36.52 52.9896 36.792L51.9256 39.816L50.7576 36.792C50.6696 36.56 50.6216 36.44 50.5816 36.176H49.3896C49.5496 36.432 49.6136 36.568 49.7016 36.8L50.9336 40H51.8616L51.8536 40.032C51.5576 40.88 51.1336 41.272 50.7256 41.272C50.4456 41.272 50.3096 41.12 50.1656 40.824C49.9576 40.384 49.3736 40.576 49.4616 41.032C49.7576 41.296 50.1896 41.424 50.5736 41.424C51.2936 41.424 51.6856 40.984 52.0296 40L53.1496 36.8C53.2456 36.52 53.2856 36.408 53.4056 36.176H53.1496ZM56.4078 33.6C56.5758 33.912 56.6558 34.112 56.7598 34.512L58.2958 40H59.5998C59.5358 39.792 59.5438 39.688 59.5918 39.488L60.9998 34.44C61.0798 34.144 61.1198 33.976 61.3038 33.6H61.0238C60.9998 33.96 60.9278 34.144 60.8478 34.448L59.3838 39.72L57.9198 34.512C57.8238 34.144 57.7678 33.984 57.7518 33.6H56.4078ZM62.1444 35.272L62.8164 34.672L62.1444 34.072L61.4724 34.672L62.1444 35.272ZM61.5924 36.176C61.6724 36.824 61.6724 37.224 61.6724 37.752V38.432C61.6724 38.96 61.6724 39.352 61.5924 40H62.6964C62.6244 39.352 62.6244 38.96 62.6244 38.432V37.752C62.6244 37.224 62.6244 36.824 62.6964 36.176H61.5924ZM63.7224 33.6C63.8024 34.288 63.8024 34.72 63.8024 35.248V38.352C63.8024 38.88 63.8024 39.312 63.7224 40H64.8264C64.7544 39.312 64.7544 38.88 64.7544 38.352V35.248C64.7544 34.72 64.7544 34.288 64.8264 33.6H63.7224ZM65.7693 33.6C65.8493 34.288 65.8493 34.72 65.8493 35.248V38.352C65.8493 38.88 65.8493 39.312 65.7693 40H66.8733C66.8013 39.312 66.8013 38.88 66.8013 38.352V35.248C66.8013 34.72 66.8013 34.288 66.8733 33.6H65.7693ZM71.5961 40C71.4761 39.352 71.4761 38.96 71.4761 38.384V37.232C71.4681 36.336 70.8361 36.016 69.9401 36.016C69.0761 36.016 68.2761 36.36 67.7401 36.728C67.8281 37.216 68.3561 37.296 68.6441 36.92C68.8681 36.648 69.0841 36.168 69.8201 36.168C70.2841 36.168 70.5241 36.456 70.5241 36.992C70.5241 37.496 70.1241 37.64 69.4361 37.76C68.6361 37.896 67.6121 38.152 67.6121 39.096C67.6121 39.864 68.3001 40.16 68.9641 40.16C69.8441 40.16 70.3241 39.712 70.5241 39.12C70.5321 39.408 70.5481 39.648 70.5961 40H71.5961ZM69.4121 39.832C68.9641 39.832 68.6521 39.544 68.6521 38.952C68.6521 38.376 68.9721 38.04 69.6201 37.872C70.0521 37.76 70.3641 37.696 70.5241 37.464V38.4C70.5241 39.216 70.0921 39.832 69.4121 39.832ZM78.7914 40C78.6714 39.352 78.6714 38.96 78.6714 38.384V37.232C78.6634 36.336 78.0314 36.016 77.1354 36.016C76.2714 36.016 75.4714 36.36 74.9354 36.728C75.0234 37.216 75.5514 37.296 75.8394 36.92C76.0634 36.648 76.2794 36.168 77.0154 36.168C77.4794 36.168 77.7194 36.456 77.7194 36.992C77.7194 37.496 77.3194 37.64 76.6314 37.76C75.8314 37.896 74.8074 38.152 74.8074 39.096C74.8074 39.864 75.4954 40.16 76.1594 40.16C77.0394 40.16 77.5194 39.712 77.7194 39.12C77.7274 39.408 77.7434 39.648 77.7914 40H78.7914ZM76.6074 39.832C76.1594 39.832 75.8474 39.544 75.8474 38.952C75.8474 38.376 76.1674 38.04 76.8154 37.872C77.2474 37.76 77.5594 37.696 77.7194 37.464V38.4C77.7194 39.216 77.2874 39.832 76.6074 39.832ZM82.1528 38.368C81.9848 39.528 81.7128 39.944 81.3528 39.944C81.0568 39.944 80.9128 39.712 80.9128 38.976V36.328H82.0648V36.176H80.1528C80.9288 35.872 81.0728 35.168 81.0728 34.496H80.2568C80.2568 35.384 80.2968 36.176 79.2088 36.176H79.0968V36.328H79.9608V38.84C79.9608 39.792 80.2808 40.2 81.0168 40.2C81.6888 40.2 82.0888 39.792 82.2888 38.368H82.1528ZM90.4508 35.248C90.4508 34.584 90.4668 34.24 90.5228 33.6H89.2828C89.3388 34.24 89.3548 34.584 89.3548 35.248V36.728H86.6108V35.248C86.6108 34.584 86.6268 34.24 86.6828 33.6H85.4428C85.4988 34.24 85.5148 34.584 85.5148 35.248V38.352C85.5148 39.016 85.4988 39.36 85.4428 40H86.6828C86.6268 39.36 86.6108 39.016 86.6108 38.352V36.872H89.3548V38.352C89.3548 39.016 89.3388 39.36 89.2828 40H90.5228C90.4668 39.36 90.4508 39.016 90.4508 38.352V35.248ZM95.4813 38.536C95.2013 39.44 94.6173 39.904 93.8813 39.904C92.8653 39.904 92.3533 39.032 92.3533 38.016C92.3533 37.88 92.3613 37.76 92.3693 37.64H95.4173C95.4093 36.784 94.7133 36.016 93.5053 36.016C92.3613 36.016 91.3133 36.776 91.3133 38.088C91.3133 39.408 92.3373 40.16 93.5853 40.16C94.6973 40.16 95.3293 39.528 95.6173 38.536H95.4813ZM93.4893 36.168C94.1293 36.168 94.4093 36.72 94.4093 37.488H92.3853C92.4973 36.624 92.9053 36.168 93.4893 36.168ZM99.1018 40H100.206C100.134 39.224 100.134 38.912 100.134 38.384V37.568C100.134 36.456 99.6778 36.016 98.8778 36.016C98.0778 36.016 97.5738 36.52 97.2858 37.04C97.2938 36.784 97.3098 36.512 97.3498 36.176H96.2458C96.3258 36.824 96.3258 37.224 96.3258 37.752V38.432C96.3258 38.96 96.3258 39.352 96.2458 40H97.3498C97.2778 39.352 97.2778 38.96 97.2778 38.432V37.752V37.304C97.5498 36.76 97.9658 36.272 98.5258 36.272C98.9818 36.272 99.1818 36.616 99.1818 37.256V38.384C99.1818 38.912 99.1818 39.224 99.1018 40ZM103.977 40H105.081C105.009 39.224 105.009 38.912 105.009 38.384V37.568C105.009 36.456 104.553 36.016 103.753 36.016C102.953 36.016 102.449 36.52 102.161 37.04C102.169 36.784 102.185 36.512 102.225 36.176H101.121C101.201 36.824 101.201 37.224 101.201 37.752V38.432C101.201 38.96 101.201 39.352 101.121 40H102.225C102.153 39.352 102.153 38.96 102.153 38.432V37.752V37.304C102.425 36.76 102.841 36.272 103.401 36.272C103.857 36.272 104.057 36.616 104.057 37.256V38.384C104.057 38.912 104.057 39.224 103.977 40ZM108.688 36.176C108.784 36.96 108.784 37.264 108.784 37.792V38.432V38.936C108.512 39.464 108.088 39.904 107.536 39.904C107.088 39.904 106.888 39.568 106.888 38.928V36.176H105.832C105.928 36.96 105.928 37.264 105.928 37.792V38.608C105.928 39.72 106.384 40.16 107.184 40.16C107.976 40.16 108.48 39.672 108.776 39.152C108.768 39.384 108.744 39.64 108.712 40H109.736V36.176H108.688ZM113.843 36.176C112.819 35.992 112.323 36.56 111.715 37.264C111.723 36.936 111.739 36.608 111.787 36.176H110.683C110.763 36.824 110.763 37.224 110.763 37.752V38.432C110.763 38.96 110.763 39.352 110.683 40H111.787C111.715 39.352 111.715 38.96 111.715 38.432V37.752V37.488C112.483 36.664 112.771 36.624 113.187 36.76C113.675 36.928 113.939 36.624 113.843 36.176ZM121.064 38.496C120.672 37.528 120.04 37.152 119.296 37.016C120.496 36.928 121.448 36.528 121.448 35.32C121.448 33.904 120.144 33.6 118.656 33.6H116.912C116.968 34.24 116.984 34.584 116.984 35.248V38.352C116.984 39.016 116.968 39.36 116.912 40H118.152C118.096 39.36 118.08 39.016 118.08 38.352V37.04H118.304C119.096 37.04 119.496 37.272 119.936 38.552C120.336 39.736 121.112 40 122.544 40V39.864C121.816 39.864 121.464 39.52 121.064 38.496ZM118.08 36.888V33.752H118.648C119.52 33.752 120.336 34.072 120.336 35.32C120.336 36.568 119.52 36.888 118.648 36.888H118.08ZM125.143 40.16C126.519 40.16 127.535 39.376 127.535 38.088C127.535 36.8 126.519 36.016 125.143 36.016C123.759 36.016 122.751 36.8 122.751 38.088C122.751 39.376 123.759 40.16 125.143 40.16ZM125.143 40.008C124.247 40.008 123.791 39.304 123.791 38.088C123.791 36.88 124.247 36.168 125.143 36.168C126.031 36.168 126.487 36.88 126.487 38.088C126.487 39.304 126.031 40.008 125.143 40.008ZM132.096 40C131.976 39.352 131.976 38.96 131.976 38.384V37.232C131.968 36.336 131.336 36.016 130.44 36.016C129.576 36.016 128.776 36.36 128.24 36.728C128.328 37.216 128.856 37.296 129.144 36.92C129.368 36.648 129.584 36.168 130.32 36.168C130.784 36.168 131.024 36.456 131.024 36.992C131.024 37.496 130.624 37.64 129.936 37.76C129.136 37.896 128.112 38.152 128.112 39.096C128.112 39.864 128.8 40.16 129.464 40.16C130.344 40.16 130.824 39.712 131.024 39.12C131.032 39.408 131.048 39.648 131.096 40H132.096ZM129.912 39.832C129.464 39.832 129.152 39.544 129.152 38.952C129.152 38.376 129.472 38.04 130.12 37.872C130.552 37.76 130.864 37.696 131.024 37.464V38.4C131.024 39.216 130.592 39.832 129.912 39.832ZM137.421 40C137.293 39.264 137.293 38.96 137.293 38.432V33.6H136.245C136.341 34.376 136.341 34.688 136.341 35.216V36.84C135.941 36.352 135.389 36.016 134.701 36.016C133.813 36.016 132.845 36.68 132.845 38.088C132.845 39.496 133.765 40.16 134.773 40.16C135.645 40.16 136.141 39.664 136.341 39C136.349 39.36 136.365 39.584 136.421 40H137.421ZM135.093 39.904C134.229 39.904 133.885 39.088 133.885 38.088C133.885 36.904 134.317 36.24 134.997 36.24C135.517 36.24 136.013 36.616 136.341 37.048V38.208C136.341 39.248 135.853 39.904 135.093 39.904Z" fill="white"/>
<rect x="20" y="28" width="126" height="1" fill="#9A9595"/>
</svg>
