<svg width="182" height="60" viewBox="0 0 182 60" fill="none" xmlns="http://www.w3.org/2000/svg">
<path d="M22.9571 8.71V24H20.4491V13.528L15.7851 24H14.0471L9.36113 13.528V24H6.85313V8.71H9.55913L14.9271 20.7L20.2731 8.71H22.9571ZM28.7615 8.71V24H26.2535V8.71H28.7615ZM48.1583 8.71V24H45.6503V13.528L40.9863 24H39.2483L34.5623 13.528V24H32.0543V8.71H34.7603L40.1283 20.7L45.4743 8.71H48.1583ZM56.4927 24.154C55.466 24.154 54.542 23.978 53.7207 23.626C52.8994 23.2593 52.254 22.746 51.7847 22.086C51.3154 21.426 51.0807 20.656 51.0807 19.776H53.7647C53.8234 20.436 54.08 20.9787 54.5347 21.404C55.004 21.8293 55.6567 22.042 56.4927 22.042C57.358 22.042 58.0327 21.8367 58.5167 21.426C59.0007 21.0007 59.2427 20.458 59.2427 19.798C59.2427 19.2847 59.0887 18.8667 58.7807 18.544C58.4874 18.2213 58.1134 17.972 57.6587 17.796C57.2187 17.62 56.6027 17.4293 55.8107 17.224C54.8134 16.96 53.9994 16.696 53.3687 16.432C52.7527 16.1533 52.2247 15.728 51.7847 15.156C51.3447 14.584 51.1247 13.8213 51.1247 12.868C51.1247 11.988 51.3447 11.218 51.7847 10.558C52.2247 9.898 52.8407 9.392 53.6327 9.04C54.4247 8.688 55.3414 8.512 56.3827 8.512C57.864 8.512 59.074 8.886 60.0127 9.634C60.966 10.3673 61.494 11.3793 61.5967 12.67H58.8247C58.7807 12.1127 58.5167 11.636 58.0327 11.24C57.5487 10.844 56.9107 10.646 56.1187 10.646C55.4 10.646 54.8134 10.8293 54.3587 11.196C53.904 11.5627 53.6767 12.0907 53.6767 12.78C53.6767 13.2493 53.816 13.638 54.0947 13.946C54.388 14.2393 54.7547 14.474 55.1947 14.65C55.6347 14.826 56.236 15.0167 56.9987 15.222C58.0107 15.5007 58.832 15.7793 59.4627 16.058C60.108 16.3367 60.6507 16.7693 61.0907 17.356C61.5454 17.928 61.7727 18.698 61.7727 19.666C61.7727 20.4433 61.56 21.1767 61.1347 21.866C60.724 22.5553 60.1154 23.1127 59.3087 23.538C58.5167 23.9487 57.578 24.154 56.4927 24.154Z" fill="#A70C0C"/>
<path d="M83.0089 24H80.5009L72.9549 12.582V24H70.4469V8.688H72.9549L80.5009 20.084V8.688H83.0089V24ZM91.5603 24.198C90.4163 24.198 89.3823 23.9413 88.4583 23.428C87.5343 22.9 86.8083 22.1667 86.2803 21.228C85.7523 20.2747 85.4883 19.1747 85.4883 17.928C85.4883 16.696 85.7597 15.6033 86.3023 14.65C86.845 13.6967 87.5857 12.9633 88.5243 12.45C89.463 11.9367 90.5117 11.68 91.6703 11.68C92.829 11.68 93.8777 11.9367 94.8163 12.45C95.755 12.9633 96.4957 13.6967 97.0383 14.65C97.581 15.6033 97.8523 16.696 97.8523 17.928C97.8523 19.16 97.5737 20.2527 97.0163 21.206C96.459 22.1593 95.6963 22.9 94.7283 23.428C93.775 23.9413 92.719 24.198 91.5603 24.198ZM91.5603 22.02C92.2057 22.02 92.807 21.866 93.3643 21.558C93.9363 21.25 94.3983 20.788 94.7503 20.172C95.1023 19.556 95.2783 18.808 95.2783 17.928C95.2783 17.048 95.1097 16.3073 94.7723 15.706C94.435 15.09 93.9877 14.628 93.4303 14.32C92.873 14.012 92.2717 13.858 91.6263 13.858C90.981 13.858 90.3797 14.012 89.8223 14.32C89.2797 14.628 88.847 15.09 88.5243 15.706C88.2017 16.3073 88.0403 17.048 88.0403 17.928C88.0403 19.2333 88.3703 20.2453 89.0303 20.964C89.705 21.668 90.5483 22.02 91.5603 22.02ZM102.84 13.638C103.206 13.022 103.69 12.5453 104.292 12.208C104.908 11.856 105.634 11.68 106.47 11.68V14.276H105.832C104.849 14.276 104.101 14.5253 103.588 15.024C103.089 15.5227 102.84 16.388 102.84 17.62V24H100.332V11.878H102.84V13.638ZM111.701 13.924V20.634C111.701 21.0887 111.804 21.4187 112.009 21.624C112.229 21.8147 112.596 21.91 113.109 21.91H114.649V24H112.669C111.54 24 110.674 23.736 110.073 23.208C109.472 22.68 109.171 21.822 109.171 20.634V13.924H107.741V11.878H109.171V8.864H111.701V11.878H114.649V13.924H111.701ZM123.231 11.68C124.155 11.68 124.976 11.878 125.695 12.274C126.428 12.67 127 13.2567 127.411 14.034C127.836 14.8113 128.049 15.75 128.049 16.85V24H125.563V17.224C125.563 16.1387 125.291 15.31 124.749 14.738C124.206 14.1513 123.465 13.858 122.527 13.858C121.588 13.858 120.84 14.1513 120.283 14.738C119.74 15.31 119.469 16.1387 119.469 17.224V24H116.961V7.72H119.469V13.286C119.894 12.7727 120.429 12.3767 121.075 12.098C121.735 11.8193 122.453 11.68 123.231 11.68ZM130.412 17.884C130.412 16.6667 130.661 15.5887 131.16 14.65C131.673 13.7113 132.362 12.9853 133.228 12.472C134.108 11.944 135.083 11.68 136.154 11.68C136.946 11.68 137.723 11.856 138.486 12.208C139.263 12.5453 139.879 13 140.334 13.572V7.72H142.864V24H140.334V22.174C139.923 22.7607 139.351 23.2447 138.618 23.626C137.899 24.0073 137.07 24.198 136.132 24.198C135.076 24.198 134.108 23.934 133.228 23.406C132.362 22.8633 131.673 22.1153 131.16 21.162C130.661 20.194 130.412 19.1013 130.412 17.884ZM140.334 17.928C140.334 17.092 140.158 16.366 139.806 15.75C139.468 15.134 139.021 14.6647 138.464 14.342C137.906 14.0193 137.305 13.858 136.66 13.858C136.014 13.858 135.413 14.0193 134.856 14.342C134.298 14.65 133.844 15.112 133.492 15.728C133.154 16.3293 132.986 17.048 132.986 17.884C132.986 18.72 133.154 19.4533 133.492 20.084C133.844 20.7147 134.298 21.1987 134.856 21.536C135.428 21.8587 136.029 22.02 136.66 22.02C137.305 22.02 137.906 21.8587 138.464 21.536C139.021 21.2133 139.468 20.744 139.806 20.128C140.158 19.4973 140.334 18.764 140.334 17.928ZM145.322 17.884C145.322 16.6667 145.571 15.5887 146.07 14.65C146.583 13.7113 147.272 12.9853 148.138 12.472C149.018 11.944 149.986 11.68 151.042 11.68C151.995 11.68 152.824 11.8707 153.528 12.252C154.246 12.6187 154.818 13.0807 155.244 13.638V11.878H157.774V24H155.244V22.196C154.818 22.768 154.239 23.2447 153.506 23.626C152.772 24.0073 151.936 24.198 150.998 24.198C149.956 24.198 149.003 23.934 148.138 23.406C147.272 22.8633 146.583 22.1153 146.07 21.162C145.571 20.194 145.322 19.1013 145.322 17.884ZM155.244 17.928C155.244 17.092 155.068 16.366 154.716 15.75C154.378 15.134 153.931 14.6647 153.374 14.342C152.816 14.0193 152.215 13.858 151.57 13.858C150.924 13.858 150.323 14.0193 149.766 14.342C149.208 14.65 148.754 15.112 148.402 15.728C148.064 16.3293 147.896 17.048 147.896 17.884C147.896 18.72 148.064 19.4533 148.402 20.084C148.754 20.7147 149.208 21.1987 149.766 21.536C150.338 21.8587 150.939 22.02 151.57 22.02C152.215 22.02 152.816 21.8587 153.374 21.536C153.931 21.2133 154.378 20.744 154.716 20.128C155.068 19.4973 155.244 18.764 155.244 17.928ZM163.576 7.72V24H161.068V7.72H163.576ZM177.979 17.642C177.979 18.0967 177.949 18.5073 177.891 18.874H168.629C168.702 19.842 169.061 20.6193 169.707 21.206C170.352 21.7927 171.144 22.086 172.083 22.086C173.432 22.086 174.385 21.5213 174.943 20.392H177.649C177.282 21.5067 176.615 22.4233 175.647 23.142C174.693 23.846 173.505 24.198 172.083 24.198C170.924 24.198 169.883 23.9413 168.959 23.428C168.049 22.9 167.331 22.1667 166.803 21.228C166.289 20.2747 166.033 19.1747 166.033 17.928C166.033 16.6813 166.282 15.5887 166.781 14.65C167.294 13.6967 168.005 12.9633 168.915 12.45C169.839 11.9367 170.895 11.68 172.083 11.68C173.227 11.68 174.246 11.9293 175.141 12.428C176.035 12.9267 176.732 13.6307 177.231 14.54C177.729 15.4347 177.979 16.4687 177.979 17.642ZM175.361 16.85C175.346 15.926 175.016 15.1853 174.371 14.628C173.725 14.0707 172.926 13.792 171.973 13.792C171.107 13.792 170.367 14.0707 169.751 14.628C169.135 15.1707 168.768 15.9113 168.651 16.85H175.361Z" fill="white"/>
<rect x="2" y="35" width="180" height="1" fill="#CBC4C4"/>
<path d="M6.864 43.4C6.948 44.36 6.972 44.876 6.972 45.872V50.528C6.972 51.524 6.936 52.04 6.84 53H12.612L13.008 52.196C11.52 52.7 10.764 52.772 9.528 52.772H8.616V45.872C8.616 44.876 8.64 44.36 8.724 43.4H6.864ZM18.1527 47.264C18.2967 48.44 18.2967 48.896 18.2967 49.688V50.648V51.404C17.8887 52.196 17.2527 52.856 16.4247 52.856C15.7527 52.856 15.4527 52.352 15.4527 51.392V47.264H13.8687C14.0127 48.44 14.0127 48.896 14.0127 49.688V50.912C14.0127 52.58 14.6967 53.24 15.8967 53.24C17.0847 53.24 17.8407 52.508 18.2847 51.728C18.2727 52.076 18.2367 52.46 18.1887 53H19.7247V47.264H18.1527ZM25.6863 52.328L24.1143 49.904L25.5303 47.888C25.7103 47.648 25.7823 47.528 26.0103 47.264H25.6623C25.5303 47.528 25.4343 47.636 25.2663 47.888L23.9823 49.688L22.8663 47.972C22.6983 47.696 22.6023 47.528 22.4943 47.264H20.6103C20.8623 47.528 20.9583 47.696 21.1503 47.972L22.6863 50.372L21.3303 52.376C21.1743 52.616 21.0903 52.736 20.8503 53H21.2103C21.3543 52.736 21.4263 52.628 21.5943 52.376L22.8303 50.588L23.9463 52.328C24.1023 52.568 24.1863 52.736 24.3063 53H26.2023C25.9503 52.736 25.8423 52.568 25.6863 52.328ZM31.1254 47.264C31.2694 48.44 31.2694 48.896 31.2694 49.688V50.648V51.404C30.8614 52.196 30.2254 52.856 29.3974 52.856C28.7254 52.856 28.4254 52.352 28.4254 51.392V47.264H26.8414C26.9854 48.44 26.9854 48.896 26.9854 49.688V50.912C26.9854 52.58 27.6694 53.24 28.8694 53.24C30.0574 53.24 30.8134 52.508 31.2574 51.728C31.2454 52.076 31.2094 52.46 31.1614 53H32.6974V47.264H31.1254ZM38.8587 47.264C37.3227 46.988 36.5787 47.84 35.6667 48.896C35.6787 48.404 35.7027 47.912 35.7747 47.264H34.1187C34.2387 48.236 34.2387 48.836 34.2387 49.628V50.648C34.2387 51.44 34.2387 52.028 34.1187 53H35.7747C35.6667 52.028 35.6667 51.44 35.6667 50.648V49.628V49.232C36.8187 47.996 37.2507 47.936 37.8747 48.14C38.6067 48.392 39.0027 47.936 38.8587 47.264ZM45.2243 47.264C45.1523 47.612 45.1283 47.78 44.9843 48.188L43.3883 52.724L41.6363 48.188C41.5043 47.84 41.4323 47.66 41.3723 47.264H39.5843C39.8243 47.648 39.9203 47.852 40.0523 48.2L41.9003 53H43.2923L43.2803 53.048C42.8363 54.32 42.2003 54.908 41.5883 54.908C41.1683 54.908 40.9643 54.68 40.7483 54.236C40.4363 53.576 39.5603 53.864 39.6923 54.548C40.1363 54.944 40.7843 55.136 41.3603 55.136C42.4403 55.136 43.0283 54.476 43.5443 53L45.2243 48.2C45.3683 47.78 45.4283 47.612 45.6083 47.264H45.2243ZM50.1117 43.4C50.3637 43.868 50.4837 44.168 50.6397 44.768L52.9437 53H54.8997C54.8037 52.688 54.8157 52.532 54.8877 52.232L56.9997 44.66C57.1197 44.216 57.1797 43.964 57.4557 43.4H57.0357C56.9997 43.94 56.8917 44.216 56.7717 44.672L54.5757 52.58L52.3797 44.768C52.2357 44.216 52.1517 43.976 52.1277 43.4H50.1117ZM58.7166 45.908L59.7246 45.008L58.7166 44.108L57.7086 45.008L58.7166 45.908ZM57.8886 47.264C58.0086 48.236 58.0086 48.836 58.0086 49.628V50.648C58.0086 51.44 58.0086 52.028 57.8886 53H59.5446C59.4366 52.028 59.4366 51.44 59.4366 50.648V49.628C59.4366 48.836 59.4366 48.236 59.5446 47.264H57.8886ZM61.0836 43.4C61.2036 44.432 61.2036 45.08 61.2036 45.872V50.528C61.2036 51.32 61.2036 51.968 61.0836 53H62.7396C62.6316 51.968 62.6316 51.32 62.6316 50.528V45.872C62.6316 45.08 62.6316 44.432 62.7396 43.4H61.0836ZM64.1539 43.4C64.2739 44.432 64.2739 45.08 64.2739 45.872V50.528C64.2739 51.32 64.2739 51.968 64.1539 53H65.8099C65.7019 51.968 65.7019 51.32 65.7019 50.528V45.872C65.7019 45.08 65.7019 44.432 65.8099 43.4H64.1539ZM72.8941 53C72.7141 52.028 72.7141 51.44 72.7141 50.576V48.848C72.7021 47.504 71.7541 47.024 70.4101 47.024C69.1141 47.024 67.9141 47.54 67.1101 48.092C67.2421 48.824 68.0341 48.944 68.4661 48.38C68.8021 47.972 69.1261 47.252 70.2301 47.252C70.9261 47.252 71.2861 47.684 71.2861 48.488C71.2861 49.244 70.6861 49.46 69.6541 49.64C68.4541 49.844 66.9181 50.228 66.9181 51.644C66.9181 52.796 67.9501 53.24 68.9461 53.24C70.2661 53.24 70.9861 52.568 71.2861 51.68C71.2981 52.112 71.3221 52.472 71.3941 53H72.8941ZM69.6181 52.748C68.9461 52.748 68.4781 52.316 68.4781 51.428C68.4781 50.564 68.9581 50.06 69.9301 49.808C70.5781 49.64 71.0461 49.544 71.2861 49.196V50.6C71.2861 51.824 70.6381 52.748 69.6181 52.748ZM83.6871 53C83.5071 52.028 83.5071 51.44 83.5071 50.576V48.848C83.4951 47.504 82.5471 47.024 81.2031 47.024C79.9071 47.024 78.7071 47.54 77.9031 48.092C78.0351 48.824 78.8271 48.944 79.2591 48.38C79.5951 47.972 79.9191 47.252 81.0231 47.252C81.7191 47.252 82.0791 47.684 82.0791 48.488C82.0791 49.244 81.4791 49.46 80.4471 49.64C79.2471 49.844 77.7111 50.228 77.7111 51.644C77.7111 52.796 78.7431 53.24 79.7391 53.24C81.0591 53.24 81.7791 52.568 82.0791 51.68C82.0911 52.112 82.1151 52.472 82.1871 53H83.6871ZM80.4111 52.748C79.7391 52.748 79.2711 52.316 79.2711 51.428C79.2711 50.564 79.7511 50.06 80.7231 49.808C81.3711 49.64 81.8391 49.544 82.0791 49.196V50.6C82.0791 51.824 81.4311 52.748 80.4111 52.748ZM88.7291 50.552C88.4771 52.292 88.0691 52.916 87.5291 52.916C87.0851 52.916 86.8691 52.568 86.8691 51.464V47.492H88.5971V47.264H85.7291C86.8931 46.808 87.1091 45.752 87.1091 44.744H85.8851C85.8851 46.076 85.9451 47.264 84.3131 47.264H84.1451V47.492H85.4411V51.26C85.4411 52.688 85.9211 53.3 87.0251 53.3C88.0331 53.3 88.6331 52.688 88.9331 50.552H88.7291ZM101.176 45.872C101.176 44.876 101.2 44.36 101.284 43.4H99.4242C99.5082 44.36 99.5322 44.876 99.5322 45.872V48.092H95.4162V45.872C95.4162 44.876 95.4402 44.36 95.5242 43.4H93.6642C93.7482 44.36 93.7722 44.876 93.7722 45.872V50.528C93.7722 51.524 93.7482 52.04 93.6642 53H95.5242C95.4402 52.04 95.4162 51.524 95.4162 50.528V48.308H99.5322V50.528C99.5322 51.524 99.5082 52.04 99.4242 53H101.284C101.2 52.04 101.176 51.524 101.176 50.528V45.872ZM108.722 50.804C108.302 52.16 107.426 52.856 106.322 52.856C104.798 52.856 104.03 51.548 104.03 50.024C104.03 49.82 104.042 49.64 104.054 49.46H108.626C108.614 48.176 107.57 47.024 105.758 47.024C104.042 47.024 102.47 48.164 102.47 50.132C102.47 52.112 104.006 53.24 105.878 53.24C107.546 53.24 108.494 52.292 108.926 50.804H108.722ZM105.734 47.252C106.694 47.252 107.114 48.08 107.114 49.232H104.078C104.246 47.936 104.858 47.252 105.734 47.252ZM114.153 53H115.809C115.701 51.836 115.701 51.368 115.701 50.576V49.352C115.701 47.684 115.017 47.024 113.817 47.024C112.617 47.024 111.861 47.78 111.429 48.56C111.441 48.176 111.465 47.768 111.525 47.264H109.869C109.989 48.236 109.989 48.836 109.989 49.628V50.648C109.989 51.44 109.989 52.028 109.869 53H111.525C111.417 52.028 111.417 51.44 111.417 50.648V49.628V48.956C111.825 48.14 112.449 47.408 113.289 47.408C113.973 47.408 114.273 47.924 114.273 48.884V50.576C114.273 51.368 114.273 51.836 114.153 53ZM121.465 53H123.121C123.013 51.836 123.013 51.368 123.013 50.576V49.352C123.013 47.684 122.329 47.024 121.129 47.024C119.929 47.024 119.173 47.78 118.741 48.56C118.753 48.176 118.777 47.768 118.837 47.264H117.181C117.301 48.236 117.301 48.836 117.301 49.628V50.648C117.301 51.44 117.301 52.028 117.181 53H118.837C118.729 52.028 118.729 51.44 118.729 50.648V49.628V48.956C119.137 48.14 119.761 47.408 120.601 47.408C121.285 47.408 121.585 47.924 121.585 48.884V50.576C121.585 51.368 121.585 51.836 121.465 53ZM128.532 47.264C128.676 48.44 128.676 48.896 128.676 49.688V50.648V51.404C128.268 52.196 127.632 52.856 126.804 52.856C126.132 52.856 125.832 52.352 125.832 51.392V47.264H124.248C124.392 48.44 124.392 48.896 124.392 49.688V50.912C124.392 52.58 125.076 53.24 126.276 53.24C127.464 53.24 128.22 52.508 128.664 51.728C128.652 52.076 128.616 52.46 128.568 53H130.104V47.264H128.532ZM136.265 47.264C134.729 46.988 133.985 47.84 133.073 48.896C133.085 48.404 133.109 47.912 133.181 47.264H131.525C131.645 48.236 131.645 48.836 131.645 49.628V50.648C131.645 51.44 131.645 52.028 131.525 53H133.181C133.073 52.028 133.073 51.44 133.073 50.648V49.628V49.232C134.225 47.996 134.657 47.936 135.281 48.14C136.013 48.392 136.409 47.936 136.265 47.264ZM147.095 50.744C146.507 49.292 145.559 48.728 144.443 48.524C146.243 48.392 147.671 47.792 147.671 45.98C147.671 43.856 145.715 43.4 143.483 43.4H140.867C140.951 44.36 140.975 44.876 140.975 45.872V50.528C140.975 51.524 140.951 52.04 140.867 53H142.727C142.643 52.04 142.619 51.524 142.619 50.528V48.56H142.955C144.143 48.56 144.743 48.908 145.403 50.828C146.003 52.604 147.167 53 149.315 53V52.796C148.223 52.796 147.695 52.28 147.095 50.744ZM142.619 48.332V43.628H143.471C144.779 43.628 146.003 44.108 146.003 45.98C146.003 47.852 144.779 48.332 143.471 48.332H142.619ZM153.214 53.24C155.278 53.24 156.802 52.064 156.802 50.132C156.802 48.2 155.278 47.024 153.214 47.024C151.138 47.024 149.626 48.2 149.626 50.132C149.626 52.064 151.138 53.24 153.214 53.24ZM153.214 53.012C151.87 53.012 151.186 51.956 151.186 50.132C151.186 48.32 151.87 47.252 153.214 47.252C154.546 47.252 155.23 48.32 155.23 50.132C155.23 51.956 154.546 53.012 153.214 53.012ZM163.644 53C163.464 52.028 163.464 51.44 163.464 50.576V48.848C163.452 47.504 162.504 47.024 161.16 47.024C159.864 47.024 158.664 47.54 157.86 48.092C157.992 48.824 158.784 48.944 159.216 48.38C159.552 47.972 159.876 47.252 160.98 47.252C161.676 47.252 162.036 47.684 162.036 48.488C162.036 49.244 161.436 49.46 160.404 49.64C159.204 49.844 157.668 50.228 157.668 51.644C157.668 52.796 158.7 53.24 159.696 53.24C161.016 53.24 161.736 52.568 162.036 51.68C162.048 52.112 162.072 52.472 162.144 53H163.644ZM160.368 52.748C159.696 52.748 159.228 52.316 159.228 51.428C159.228 50.564 159.708 50.06 160.68 49.808C161.328 49.64 161.796 49.544 162.036 49.196V50.6C162.036 51.824 161.388 52.748 160.368 52.748ZM171.631 53C171.439 51.896 171.439 51.44 171.439 50.648V43.4H169.867C170.011 44.564 170.011 45.032 170.011 45.824V48.26C169.411 47.528 168.583 47.024 167.551 47.024C166.219 47.024 164.767 48.02 164.767 50.132C164.767 52.244 166.147 53.24 167.659 53.24C168.967 53.24 169.711 52.496 170.011 51.5C170.023 52.04 170.047 52.376 170.131 53H171.631ZM168.139 52.856C166.843 52.856 166.327 51.632 166.327 50.132C166.327 48.356 166.975 47.36 167.995 47.36C168.775 47.36 169.519 47.924 170.011 48.572V50.312C170.011 51.872 169.279 52.856 168.139 52.856Z" fill="white"/>
</svg>
