<svg width="286" height="70" viewBox="0 0 286 70" fill="none" xmlns="http://www.w3.org/2000/svg">
<path d="M68.1805 9.32V26H65.4445V14.576L60.3565 26H58.4605L53.3485 14.576V26H50.6125V9.32H53.5645L59.4205 22.4L65.2525 9.32H68.1805ZM74.5126 9.32V26H71.7766V9.32H74.5126ZM95.6727 9.32V26H92.9367V14.576L87.8487 26H85.9527L80.8407 14.576V26H78.1047V9.32H81.0567L86.9127 22.4L92.7447 9.32H95.6727ZM104.765 26.168C103.645 26.168 102.637 25.976 101.741 25.592C100.845 25.192 100.141 24.632 99.6288 23.912C99.1168 23.192 98.8608 22.352 98.8608 21.392H101.789C101.853 22.112 102.133 22.704 102.629 23.168C103.141 23.632 103.853 23.864 104.765 23.864C105.709 23.864 106.445 23.64 106.973 23.192C107.501 22.728 107.765 22.136 107.765 21.416C107.765 20.856 107.597 20.4 107.261 20.048C106.941 19.696 106.533 19.424 106.037 19.232C105.557 19.04 104.885 18.832 104.021 18.608C102.933 18.32 102.045 18.032 101.357 17.744C100.685 17.44 100.109 16.976 99.6288 16.352C99.1488 15.728 98.9088 14.896 98.9088 13.856C98.9088 12.896 99.1488 12.056 99.6288 11.336C100.109 10.616 100.781 10.064 101.645 9.68C102.509 9.296 103.509 9.104 104.645 9.104C106.261 9.104 107.581 9.512 108.605 10.328C109.645 11.128 110.221 12.232 110.333 13.64H107.309C107.261 13.032 106.973 12.512 106.445 12.08C105.917 11.648 105.221 11.432 104.357 11.432C103.573 11.432 102.933 11.632 102.437 12.032C101.941 12.432 101.693 13.008 101.693 13.76C101.693 14.272 101.845 14.696 102.149 15.032C102.469 15.352 102.869 15.608 103.349 15.8C103.829 15.992 104.485 16.2 105.317 16.424C106.421 16.728 107.317 17.032 108.005 17.336C108.709 17.64 109.301 18.112 109.781 18.752C110.277 19.376 110.525 20.216 110.525 21.272C110.525 22.12 110.293 22.92 109.829 23.672C109.381 24.424 108.717 25.032 107.837 25.496C106.973 25.944 105.949 26.168 104.765 26.168Z" fill="#A70C0C"/>
<path d="M133.692 26H130.956L122.724 13.544V26H119.988V9.296H122.724L130.956 21.728V9.296H133.692V26ZM143.02 26.216C141.772 26.216 140.644 25.936 139.636 25.376C138.628 24.8 137.836 24 137.26 22.976C136.684 21.936 136.396 20.736 136.396 19.376C136.396 18.032 136.692 16.84 137.284 15.8C137.876 14.76 138.684 13.96 139.708 13.4C140.732 12.84 141.876 12.56 143.14 12.56C144.404 12.56 145.548 12.84 146.572 13.4C147.596 13.96 148.404 14.76 148.996 15.8C149.588 16.84 149.884 18.032 149.884 19.376C149.884 20.72 149.58 21.912 148.972 22.952C148.364 23.992 147.532 24.8 146.476 25.376C145.436 25.936 144.284 26.216 143.02 26.216ZM143.02 23.84C143.724 23.84 144.38 23.672 144.988 23.336C145.612 23 146.116 22.496 146.5 21.824C146.884 21.152 147.076 20.336 147.076 19.376C147.076 18.416 146.892 17.608 146.524 16.952C146.156 16.28 145.668 15.776 145.06 15.44C144.452 15.104 143.796 14.936 143.092 14.936C142.388 14.936 141.732 15.104 141.124 15.44C140.532 15.776 140.06 16.28 139.708 16.952C139.356 17.608 139.18 18.416 139.18 19.376C139.18 20.8 139.54 21.904 140.26 22.688C140.996 23.456 141.916 23.84 143.02 23.84ZM155.325 14.696C155.725 14.024 156.253 13.504 156.909 13.136C157.581 12.752 158.373 12.56 159.285 12.56V15.392H158.589C157.517 15.392 156.701 15.664 156.141 16.208C155.597 16.752 155.325 17.696 155.325 19.04V26H152.589V12.776H155.325V14.696ZM164.992 15.008V22.328C164.992 22.824 165.104 23.184 165.328 23.408C165.568 23.616 165.968 23.72 166.528 23.72H168.208V26H166.048C164.816 26 163.872 25.712 163.216 25.136C162.56 24.56 162.232 23.624 162.232 22.328V15.008H160.672V12.776H162.232V9.488H164.992V12.776H168.208V15.008H164.992ZM177.57 12.56C178.578 12.56 179.474 12.776 180.258 13.208C181.058 13.64 181.682 14.28 182.13 15.128C182.594 15.976 182.826 17 182.826 18.2V26H180.114V18.608C180.114 17.424 179.818 16.52 179.226 15.896C178.634 15.256 177.826 14.936 176.802 14.936C175.778 14.936 174.962 15.256 174.354 15.896C173.762 16.52 173.466 17.424 173.466 18.608V26H170.73V8.24H173.466V14.312C173.93 13.752 174.514 13.32 175.218 13.016C175.938 12.712 176.722 12.56 177.57 12.56ZM185.404 19.328C185.404 18 185.676 16.824 186.22 15.8C186.78 14.776 187.532 13.984 188.476 13.424C189.436 12.848 190.5 12.56 191.668 12.56C192.532 12.56 193.38 12.752 194.212 13.136C195.06 13.504 195.732 14 196.228 14.624V8.24H198.988V26H196.228V24.008C195.78 24.648 195.156 25.176 194.356 25.592C193.572 26.008 192.668 26.216 191.644 26.216C190.492 26.216 189.436 25.928 188.476 25.352C187.532 24.76 186.78 23.944 186.22 22.904C185.676 21.848 185.404 20.656 185.404 19.328ZM196.228 19.376C196.228 18.464 196.036 17.672 195.652 17C195.284 16.328 194.796 15.816 194.188 15.464C193.58 15.112 192.924 14.936 192.22 14.936C191.516 14.936 190.86 15.112 190.252 15.464C189.644 15.8 189.148 16.304 188.764 16.976C188.396 17.632 188.212 18.416 188.212 19.328C188.212 20.24 188.396 21.04 188.764 21.728C189.148 22.416 189.644 22.944 190.252 23.312C190.876 23.664 191.532 23.84 192.22 23.84C192.924 23.84 193.58 23.664 194.188 23.312C194.796 22.96 195.284 22.448 195.652 21.776C196.036 21.088 196.228 20.288 196.228 19.376ZM201.669 19.328C201.669 18 201.941 16.824 202.485 15.8C203.045 14.776 203.797 13.984 204.741 13.424C205.701 12.848 206.757 12.56 207.909 12.56C208.949 12.56 209.853 12.768 210.621 13.184C211.405 13.584 212.029 14.088 212.493 14.696V12.776H215.253V26H212.493V24.032C212.029 24.656 211.397 25.176 210.597 25.592C209.797 26.008 208.885 26.216 207.861 26.216C206.725 26.216 205.685 25.928 204.741 25.352C203.797 24.76 203.045 23.944 202.485 22.904C201.941 21.848 201.669 20.656 201.669 19.328ZM212.493 19.376C212.493 18.464 212.301 17.672 211.917 17C211.549 16.328 211.061 15.816 210.453 15.464C209.845 15.112 209.189 14.936 208.485 14.936C207.781 14.936 207.125 15.112 206.517 15.464C205.909 15.8 205.413 16.304 205.029 16.976C204.661 17.632 204.477 18.416 204.477 19.328C204.477 20.24 204.661 21.04 205.029 21.728C205.413 22.416 205.909 22.944 206.517 23.312C207.141 23.664 207.797 23.84 208.485 23.84C209.189 23.84 209.845 23.664 210.453 23.312C211.061 22.96 211.549 22.448 211.917 21.776C212.301 21.088 212.493 20.288 212.493 19.376ZM221.583 8.24V26H218.847V8.24H221.583ZM237.295 19.064C237.295 19.56 237.263 20.008 237.199 20.408H227.095C227.175 21.464 227.567 22.312 228.271 22.952C228.975 23.592 229.839 23.912 230.863 23.912C232.335 23.912 233.375 23.296 233.983 22.064H236.935C236.535 23.28 235.807 24.28 234.751 25.064C233.711 25.832 232.415 26.216 230.863 26.216C229.599 26.216 228.463 25.936 227.455 25.376C226.463 24.8 225.679 24 225.103 22.976C224.543 21.936 224.263 20.736 224.263 19.376C224.263 18.016 224.535 16.824 225.079 15.8C225.639 14.76 226.415 13.96 227.407 13.4C228.415 12.84 229.567 12.56 230.863 12.56C232.111 12.56 233.223 12.832 234.199 13.376C235.175 13.92 235.935 14.688 236.479 15.68C237.023 16.656 237.295 17.784 237.295 19.064ZM234.439 18.2C234.423 17.192 234.063 16.384 233.359 15.776C232.655 15.168 231.783 14.864 230.743 14.864C229.799 14.864 228.991 15.168 228.319 15.776C227.647 16.368 227.247 17.176 227.119 18.2H234.439Z" fill="white"/>
<rect x="28.5" y="41" width="230" height="2" fill="#CBC4C4"/>
<path d="M53.936 50.6C54.027 51.64 54.053 52.199 54.053 53.278V58.322C54.053 59.401 54.014 59.96 53.91 61H60.163L60.592 60.129C58.98 60.675 58.161 60.753 56.822 60.753H55.834V53.278C55.834 52.199 55.86 51.64 55.951 50.6H53.936ZM66.1654 54.786C66.3214 56.06 66.3214 56.554 66.3214 57.412V58.452V59.271C65.8794 60.129 65.1904 60.844 64.2934 60.844C63.5654 60.844 63.2404 60.298 63.2404 59.258V54.786H61.5244C61.6804 56.06 61.6804 56.554 61.6804 57.412V58.738C61.6804 60.545 62.4214 61.26 63.7214 61.26C65.0084 61.26 65.8274 60.467 66.3084 59.622C66.2954 59.999 66.2564 60.415 66.2044 61H67.8684V54.786H66.1654ZM74.3268 60.272L72.6238 57.646L74.1578 55.462C74.3528 55.202 74.4308 55.072 74.6778 54.786H74.3008C74.1578 55.072 74.0538 55.189 73.8718 55.462L72.4808 57.412L71.2718 55.553C71.0898 55.254 70.9858 55.072 70.8688 54.786H68.8278C69.1008 55.072 69.2048 55.254 69.4128 55.553L71.0768 58.153L69.6078 60.324C69.4388 60.584 69.3478 60.714 69.0878 61H69.4778C69.6338 60.714 69.7118 60.597 69.8938 60.324L71.2328 58.387L72.4418 60.272C72.6108 60.532 72.7018 60.714 72.8318 61H74.8858C74.6128 60.714 74.4958 60.532 74.3268 60.272ZM80.2192 54.786C80.3752 56.06 80.3752 56.554 80.3752 57.412V58.452V59.271C79.9332 60.129 79.2442 60.844 78.3472 60.844C77.6192 60.844 77.2942 60.298 77.2942 59.258V54.786H75.5782C75.7342 56.06 75.7342 56.554 75.7342 57.412V58.738C75.7342 60.545 76.4752 61.26 77.7752 61.26C79.0622 61.26 79.8812 60.467 80.3622 59.622C80.3492 59.999 80.3102 60.415 80.2582 61H81.9222V54.786H80.2192ZM88.5969 54.786C86.9329 54.487 86.1269 55.41 85.1389 56.554C85.1519 56.021 85.1779 55.488 85.2559 54.786H83.4619C83.5919 55.839 83.5919 56.489 83.5919 57.347V58.452C83.5919 59.31 83.5919 59.947 83.4619 61H85.2559C85.1389 59.947 85.1389 59.31 85.1389 58.452V57.347V56.918C86.3869 55.579 86.8549 55.514 87.5309 55.735C88.3239 56.008 88.7529 55.514 88.5969 54.786ZM95.493 54.786C95.415 55.163 95.389 55.345 95.233 55.787L93.504 60.701L91.606 55.787C91.463 55.41 91.385 55.215 91.32 54.786H89.383C89.643 55.202 89.747 55.423 89.89 55.8L91.892 61H93.4L93.387 61.052C92.906 62.43 92.217 63.067 91.554 63.067C91.099 63.067 90.878 62.82 90.644 62.339C90.306 61.624 89.357 61.936 89.5 62.677C89.981 63.106 90.683 63.314 91.307 63.314C92.477 63.314 93.114 62.599 93.673 61L95.493 55.8C95.649 55.345 95.714 55.163 95.909 54.786H95.493ZM100.788 50.6C101.061 51.107 101.191 51.432 101.36 52.082L103.856 61H105.975C105.871 60.662 105.884 60.493 105.962 60.168L108.25 51.965C108.38 51.484 108.445 51.211 108.744 50.6H108.289C108.25 51.185 108.133 51.484 108.003 51.978L105.624 60.545L103.245 52.082C103.089 51.484 102.998 51.224 102.972 50.6H100.788ZM110.11 53.317L111.202 52.342L110.11 51.367L109.018 52.342L110.11 53.317ZM109.213 54.786C109.343 55.839 109.343 56.489 109.343 57.347V58.452C109.343 59.31 109.343 59.947 109.213 61H111.007C110.89 59.947 110.89 59.31 110.89 58.452V57.347C110.89 56.489 110.89 55.839 111.007 54.786H109.213ZM112.674 50.6C112.804 51.718 112.804 52.42 112.804 53.278V58.322C112.804 59.18 112.804 59.882 112.674 61H114.468C114.351 59.882 114.351 59.18 114.351 58.322V53.278C114.351 52.42 114.351 51.718 114.468 50.6H112.674ZM116 50.6C116.13 51.718 116.13 52.42 116.13 53.278V58.322C116.13 59.18 116.13 59.882 116 61H117.794C117.677 59.882 117.677 59.18 117.677 58.322V53.278C117.677 52.42 117.677 51.718 117.794 50.6H116ZM125.469 61C125.274 59.947 125.274 59.31 125.274 58.374V56.502C125.261 55.046 124.234 54.526 122.778 54.526C121.374 54.526 120.074 55.085 119.203 55.683C119.346 56.476 120.204 56.606 120.672 55.995C121.036 55.553 121.387 54.773 122.583 54.773C123.337 54.773 123.727 55.241 123.727 56.112C123.727 56.931 123.077 57.165 121.959 57.36C120.659 57.581 118.995 57.997 118.995 59.531C118.995 60.779 120.113 61.26 121.192 61.26C122.622 61.26 123.402 60.532 123.727 59.57C123.74 60.038 123.766 60.428 123.844 61H125.469ZM121.92 60.727C121.192 60.727 120.685 60.259 120.685 59.297C120.685 58.361 121.205 57.815 122.258 57.542C122.96 57.36 123.467 57.256 123.727 56.879V58.4C123.727 59.726 123.025 60.727 121.92 60.727ZM137.161 61C136.966 59.947 136.966 59.31 136.966 58.374V56.502C136.953 55.046 135.926 54.526 134.47 54.526C133.066 54.526 131.766 55.085 130.895 55.683C131.038 56.476 131.896 56.606 132.364 55.995C132.728 55.553 133.079 54.773 134.275 54.773C135.029 54.773 135.419 55.241 135.419 56.112C135.419 56.931 134.769 57.165 133.651 57.36C132.351 57.581 130.687 57.997 130.687 59.531C130.687 60.779 131.805 61.26 132.884 61.26C134.314 61.26 135.094 60.532 135.419 59.57C135.432 60.038 135.458 60.428 135.536 61H137.161ZM133.612 60.727C132.884 60.727 132.377 60.259 132.377 59.297C132.377 58.361 132.897 57.815 133.95 57.542C134.652 57.36 135.159 57.256 135.419 56.879V58.4C135.419 59.726 134.717 60.727 133.612 60.727ZM142.623 58.348C142.35 60.233 141.908 60.909 141.323 60.909C140.842 60.909 140.608 60.532 140.608 59.336V55.033H142.48V54.786H139.373C140.634 54.292 140.868 53.148 140.868 52.056H139.542C139.542 53.499 139.607 54.786 137.839 54.786H137.657V55.033H139.061V59.115C139.061 60.662 139.581 61.325 140.777 61.325C141.869 61.325 142.519 60.662 142.844 58.348H142.623ZM156.108 53.278C156.108 52.199 156.134 51.64 156.225 50.6H154.21C154.301 51.64 154.327 52.199 154.327 53.278V55.683H149.868V53.278C149.868 52.199 149.894 51.64 149.985 50.6H147.97C148.061 51.64 148.087 52.199 148.087 53.278V58.322C148.087 59.401 148.061 59.96 147.97 61H149.985C149.894 59.96 149.868 59.401 149.868 58.322V55.917H154.327V58.322C154.327 59.401 154.301 59.96 154.21 61H156.225C156.134 59.96 156.108 59.401 156.108 58.322V53.278ZM164.282 58.621C163.827 60.09 162.878 60.844 161.682 60.844C160.031 60.844 159.199 59.427 159.199 57.776C159.199 57.555 159.212 57.36 159.225 57.165H164.178C164.165 55.774 163.034 54.526 161.071 54.526C159.212 54.526 157.509 55.761 157.509 57.893C157.509 60.038 159.173 61.26 161.201 61.26C163.008 61.26 164.035 60.233 164.503 58.621H164.282ZM161.045 54.773C162.085 54.773 162.54 55.67 162.54 56.918H159.251C159.433 55.514 160.096 54.773 161.045 54.773ZM170.165 61H171.959C171.842 59.739 171.842 59.232 171.842 58.374V57.048C171.842 55.241 171.101 54.526 169.801 54.526C168.501 54.526 167.682 55.345 167.214 56.19C167.227 55.774 167.253 55.332 167.318 54.786H165.524C165.654 55.839 165.654 56.489 165.654 57.347V58.452C165.654 59.31 165.654 59.947 165.524 61H167.318C167.201 59.947 167.201 59.31 167.201 58.452V57.347V56.619C167.643 55.735 168.319 54.942 169.229 54.942C169.97 54.942 170.295 55.501 170.295 56.541V58.374C170.295 59.232 170.295 59.739 170.165 61ZM178.087 61H179.881C179.764 59.739 179.764 59.232 179.764 58.374V57.048C179.764 55.241 179.023 54.526 177.723 54.526C176.423 54.526 175.604 55.345 175.136 56.19C175.149 55.774 175.175 55.332 175.24 54.786H173.446C173.576 55.839 173.576 56.489 173.576 57.347V58.452C173.576 59.31 173.576 59.947 173.446 61H175.24C175.123 59.947 175.123 59.31 175.123 58.452V57.347V56.619C175.565 55.735 176.241 54.942 177.151 54.942C177.892 54.942 178.217 55.501 178.217 56.541V58.374C178.217 59.232 178.217 59.739 178.087 61ZM185.743 54.786C185.899 56.06 185.899 56.554 185.899 57.412V58.452V59.271C185.457 60.129 184.768 60.844 183.871 60.844C183.143 60.844 182.818 60.298 182.818 59.258V54.786H181.102C181.258 56.06 181.258 56.554 181.258 57.412V58.738C181.258 60.545 181.999 61.26 183.299 61.26C184.586 61.26 185.405 60.467 185.886 59.622C185.873 59.999 185.834 60.415 185.782 61H187.446V54.786H185.743ZM194.12 54.786C192.456 54.487 191.65 55.41 190.662 56.554C190.675 56.021 190.701 55.488 190.779 54.786H188.985C189.115 55.839 189.115 56.489 189.115 57.347V58.452C189.115 59.31 189.115 59.947 188.985 61H190.779C190.662 59.947 190.662 59.31 190.662 58.452V57.347V56.918C191.91 55.579 192.378 55.514 193.054 55.735C193.847 56.008 194.276 55.514 194.12 54.786ZM205.853 58.556C205.216 56.983 204.189 56.372 202.98 56.151C204.93 56.008 206.477 55.358 206.477 53.395C206.477 51.094 204.358 50.6 201.94 50.6H199.106C199.197 51.64 199.223 52.199 199.223 53.278V58.322C199.223 59.401 199.197 59.96 199.106 61H201.121C201.03 59.96 201.004 59.401 201.004 58.322V56.19H201.368C202.655 56.19 203.305 56.567 204.02 58.647C204.67 60.571 205.931 61 208.258 61V60.779C207.075 60.779 206.503 60.22 205.853 58.556ZM201.004 55.943V50.847H201.927C203.344 50.847 204.67 51.367 204.67 53.395C204.67 55.423 203.344 55.943 201.927 55.943H201.004ZM212.482 61.26C214.718 61.26 216.369 59.986 216.369 57.893C216.369 55.8 214.718 54.526 212.482 54.526C210.233 54.526 208.595 55.8 208.595 57.893C208.595 59.986 210.233 61.26 212.482 61.26ZM212.482 61.013C211.026 61.013 210.285 59.869 210.285 57.893C210.285 55.93 211.026 54.773 212.482 54.773C213.925 54.773 214.666 55.93 214.666 57.893C214.666 59.869 213.925 61.013 212.482 61.013ZM223.781 61C223.586 59.947 223.586 59.31 223.586 58.374V56.502C223.573 55.046 222.546 54.526 221.09 54.526C219.686 54.526 218.386 55.085 217.515 55.683C217.658 56.476 218.516 56.606 218.984 55.995C219.348 55.553 219.699 54.773 220.895 54.773C221.649 54.773 222.039 55.241 222.039 56.112C222.039 56.931 221.389 57.165 220.271 57.36C218.971 57.581 217.307 57.997 217.307 59.531C217.307 60.779 218.425 61.26 219.504 61.26C220.934 61.26 221.714 60.532 222.039 59.57C222.052 60.038 222.078 60.428 222.156 61H223.781ZM220.232 60.727C219.504 60.727 218.997 60.259 218.997 59.297C218.997 58.361 219.517 57.815 220.57 57.542C221.272 57.36 221.779 57.256 222.039 56.879V58.4C222.039 59.726 221.337 60.727 220.232 60.727ZM232.433 61C232.225 59.804 232.225 59.31 232.225 58.452V50.6H230.522C230.678 51.861 230.678 52.368 230.678 53.226V55.865C230.028 55.072 229.131 54.526 228.013 54.526C226.57 54.526 224.997 55.605 224.997 57.893C224.997 60.181 226.492 61.26 228.13 61.26C229.547 61.26 230.353 60.454 230.678 59.375C230.691 59.96 230.717 60.324 230.808 61H232.433ZM228.65 60.844C227.246 60.844 226.687 59.518 226.687 57.893C226.687 55.969 227.389 54.89 228.494 54.89C229.339 54.89 230.145 55.501 230.678 56.203V58.088C230.678 59.778 229.885 60.844 228.65 60.844Z" fill="white"/>
</svg>
